<svg width="140px" height="39px" viewBox="0 0 140 39" version="1.1" xmlns="http://www.w3.org/2000/svg" xmlns:xlink="http://www.w3.org/1999/xlink">
    <g stroke="none" stroke-width="1" fill="none" fill-rule="evenodd">
        <g>
            <g>
                <polygon fill="#F6D935" points="138.428692 0.489728571 0.526329114 5.06052857 1.77097046 38.8929729 139.674515 34.3221729">
                </polygon>
                <polygon fill="#003A32" points="32.281519 11.6370429 25.7842194 30.1490057 20.6934177 30.3174857 12.794346 12.2822143 17.3003376 12.1334571 21.4932489 22.6065171 23.0952743 27.12801 24.3629536 22.5373757 27.7749367 11.7863571">
                </polygon>
                <path d="M34.7359494,17.0446714 L38.4521519,16.9215429 L38.9235443,29.7135986 L35.2073418,29.8368386 L34.7359494,17.0446714 Z M33.9945992,12.8087143 C33.9467511,11.5033286 34.7684388,10.7439429 36.3480169,10.6921286 C37.8998312,10.6403143 38.803038,11.3423143 38.8520675,12.6471429 C38.9005063,14.0049 38.0522363,14.7915857 36.5004219,14.8422857 C34.9491983,14.8941 34.0442194,14.1659143 33.9945992,12.8087143 L33.9945992,12.8087143 Z" id="Fill-7" fill="#003A32"></path>
                <path d="M56.4022785,21.4756286 L56.6834599,29.1248657 L52.9672574,29.24805 L52.6925738,21.7820571 C52.6287764,20.0588143 51.6038819,19.2297857 49.8193249,19.2894 C47.7411814,19.3579286 46.5012658,20.7067714 46.5981435,23.3427814 L46.8232068,29.4522986 L43.1070042,29.5747029 L42.6362025,16.7828143 L46.3524051,16.6596857 L46.4616878,19.6359429 C47.0878481,17.5505571 48.5079325,16.3265143 51.0828692,16.2412714 C54.4765401,16.1287286 56.2699578,17.8731429 56.4022785,21.4756286" id="Fill-9" fill="#003A32"></path>
                <path d="M71.0497046,22.2712286 C70.9557806,19.7128286 69.7442194,18.6286286 66.9944304,18.72 C64.2440506,18.8113714 63.0850633,19.9735714 63.1789873,22.5317486 C63.27173,25.0384457 64.5122363,26.1209743 67.262616,26.0295471 C70.0129958,25.9389557 71.1412658,24.7769786 71.0497046,22.2712286 M74.7942616,22.1469857 C74.9443038,26.2195329 71.5583122,28.8939857 67.3736709,29.0322686 C63.1600844,29.1721114 59.5838819,26.7289843 59.4338397,22.6557129 C59.2832068,18.5578714 62.669789,15.8574 66.8833755,15.717 C71.0674262,15.5788286 74.6442194,18.0480857 74.7942616,22.1469857" id="Fill-10" fill="#003A32"></path>
                <path d="M89.3956118,21.6628286 C89.3022785,19.1044286 88.0907173,18.0202286 85.3692827,18.1110429 C82.5893671,18.2035286 81.4309705,19.3651714 81.5243038,21.9235714 C81.6170464,24.43038 82.8575527,25.5128529 85.6374684,25.4207014 C88.3594937,25.33089 89.4877637,24.1689129 89.3956118,21.6628286 M93.1407595,21.5391429 C93.2872574,25.5073371 90.9574684,28.2508757 86.8602532,28.3860386 C84.5192405,28.4639271 82.7825316,27.44976 81.8043038,25.5478414 L81.9053165,28.28904 L78.1897046,28.4122243 L77.5174684,10.1377714 L81.2330802,10.0146429 L81.538481,18.3160714 C82.3719831,16.302 84.1464979,15.1459286 86.574346,15.0645857 C90.5534177,14.9336571 92.9930802,17.5182429 93.1407595,21.5391429" id="Fill-11" fill="#003A32"></path>
                <path d="M106.864304,21.0839571 C106.77038,18.5255571 105.558819,17.4413571 102.80903,17.5327286 C100.05865,17.6241 98.9002532,18.7863 98.9935865,21.3447 C99.0863291,23.8513971 100.326835,24.93387 103.077215,24.8424986 C105.827595,24.7518514 106.955865,23.5898743 106.864304,21.0839571 M110.608861,20.9597143 C110.758903,25.0324286 107.372911,27.7068814 103.18827,27.8451643 C98.9746835,27.9850629 95.398481,25.54188 95.2484388,21.4683857 C95.0978059,17.3706 98.4843882,14.6701286 102.697975,14.5308429 C106.882025,14.3921143 110.458819,16.8613714 110.608861,20.9597143" id="Fill-12" fill="#003A32"></path>
                <polygon fill="#003A32" points="121.318565 20.6048143 126.46903 26.8122771 122.08 26.9576914 119.915021 23.8405886 119.004726 22.1976857 118.246245 23.86917 116.374262 27.1460614 111.955696 27.2930914 116.666667 20.7591429 111.542785 14.4985286 116.021013 14.3503286 118.006414 17.3433 118.948608 19.0893857 119.734852 17.3639143 121.580844 14.1659143 125.998819 14.0193857">
                </polygon>
            </g>
        </g>
    </g>
</svg>